# xmcd
#
# Track frame offsets:
#	150
#	10707
#	24659
#	37217
#	46241
#	52896
#	64006
#	73602
#	85210
#	94856
#	108044
#	116441
#
# Disc length: 1701 seconds
#
# Revision: 0
# Processed by: cddbd v1.5.1PL0 Copyright (c) Steve Scherf et al.
# Submitted via: dBpowerAMP V4.0
#
DISCID=9206a30c
DTITLE=Banda Sinaloense - Puras Chicoteadas I
DYEAR=2004
DGENRE=Banda
TTITLE0=El Cuerepo
TTITLE1=El toro Viejo
TTITLE2=El olotito
TTITLE3=El toro de 11
TTITLE4=Los enanitos
TTITLE5=Los Viejitos
TTITLE6=Vamon matando ese gato
TTITLE7=Las Güilotas
TTITLE8=La chiclanera
TTITLE9=Juan Colorado
TTITLE10=El pavido navido
TTITLE11=La loba
EXTD=
EXTT0=
EXTT1=
EXTT2=
EXTT3=
EXTT4=
EXTT5=
EXTT6=
EXTT7=
EXTT8=
EXTT9=
EXTT10=
EXTT11=
PLAYORDER=
